<svg width="21" height="21" viewBox="0 0 21 21" fill="none" xmlns="http://www.w3.org/2000/svg">
<path id="coolicon" d="M0.931152 10.289C0.932316 15.2084 4.50955 19.3971 9.36815 20.168V13.179H6.83115V10.289H9.37115V8.08903C9.2576 7.04657 9.61367 6.00762 10.3428 5.25396C11.0719 4.5003 12.0985 4.11004 13.1442 4.18903C13.8947 4.20115 14.6433 4.268 15.3842 4.38903V6.84803H14.1202C13.685 6.79104 13.2475 6.93475 12.9309 7.2387C12.6143 7.54264 12.4529 7.97392 12.4922 8.41103V10.289H15.2632L14.8202 13.18H12.4922V20.168C17.7466 19.3376 21.4312 14.5388 20.8767 9.24811C20.3221 3.9574 15.7224 0.0269607 10.41 0.30421C5.09751 0.581459 0.931997 4.96934 0.931152 10.289Z" fill="white"/>
</svg>
