<svg width="19" height="19" viewBox="0 0 19 19" fill="none" xmlns="http://www.w3.org/2000/svg">
<path id="coolicon" d="M9.93164 18.3264C7.47164 18.3264 7.18164 18.3134 6.22164 18.2714C5.47301 18.2468 4.73407 18.0946 4.03664 17.8214C2.82995 17.3518 1.87578 16.3973 1.40664 15.1904C1.14395 14.4904 1.00226 13.7509 0.987641 13.0034C0.931641 12.0454 0.931641 11.7314 0.931641 9.29041C0.931641 6.82341 0.944641 6.53541 0.987641 5.58041C1.00258 4.83393 1.14426 4.09541 1.40664 3.39641C1.87527 2.18793 2.83099 1.23258 4.03964 0.764405C4.73828 0.500608 5.47699 0.35855 6.22364 0.344405C7.17864 0.290405 7.49264 0.290405 9.93164 0.290405C12.4116 0.290405 12.6966 0.303405 13.6416 0.344405C14.3902 0.358672 15.1309 0.500715 15.8316 0.764405C17.0399 1.23311 17.9955 2.18828 18.4646 3.39641C18.7318 4.1056 18.8742 4.85566 18.8856 5.61341C18.9416 6.57141 18.9416 6.88441 18.9416 9.32441C18.9416 11.7644 18.9276 12.0844 18.8856 13.0314C18.8708 13.7796 18.7287 14.5198 18.4656 15.2204C17.9953 16.4281 17.0397 17.383 15.8316 17.8524C15.1319 18.1146 14.3927 18.2563 13.6456 18.2714C12.6906 18.3264 12.3776 18.3264 9.93164 18.3264ZM9.89764 1.87341C7.45164 1.87341 7.19764 1.88541 6.24264 1.92841C5.67263 1.93596 5.10812 2.04115 4.57364 2.23941C3.78439 2.54141 3.15987 3.1634 2.85464 3.95141C2.65485 4.4917 2.54965 5.06238 2.54364 5.63841C2.49064 6.60741 2.49064 6.86141 2.49064 9.29041C2.49064 11.6904 2.49964 11.9814 2.54364 12.9444C2.55259 13.5146 2.65774 14.0792 2.85464 14.6144C3.16032 15.4019 3.78473 16.0234 4.57364 16.3254C5.10776 16.525 5.67249 16.6302 6.24264 16.6364C7.21064 16.6924 7.46564 16.6924 9.89764 16.6924C12.3506 16.6924 12.6046 16.6804 13.5516 16.6364C14.122 16.6295 14.687 16.5243 15.2216 16.3254C16.0061 16.0208 16.6266 15.4007 16.9316 14.6164C17.131 14.0757 17.2362 13.5047 17.2426 12.9284H17.2536C17.2966 11.9724 17.2966 11.7174 17.2966 9.27441C17.2966 6.83141 17.2856 6.57441 17.2426 5.61941C17.2337 5.04986 17.1285 4.48592 16.9316 3.95141C16.6273 3.16598 16.0067 2.5447 15.2216 2.23941C14.6871 2.04015 14.1221 1.93493 13.5516 1.92841C12.5846 1.87341 12.3316 1.87341 9.89764 1.87341ZM9.93164 13.9094C8.06163 13.9106 6.37506 12.7851 5.6585 11.0579C4.94195 9.33058 5.33655 7.34174 6.65827 6.01887C7.98 4.696 9.9685 4.29968 11.6964 5.01474C13.4243 5.7298 14.5512 7.41539 14.5516 9.28541C14.5489 11.8365 12.4827 13.9044 9.93164 13.9094ZM9.93164 6.28341C8.27479 6.28341 6.93164 7.62655 6.93164 9.28341C6.93164 10.9403 8.27479 12.2834 9.93164 12.2834C11.5885 12.2834 12.9316 10.9403 12.9316 9.28341C12.9278 7.62815 11.5869 6.28725 9.93164 6.28341ZM14.7316 5.57041C14.1371 5.5682 13.6565 5.08499 13.6576 4.49041C13.6587 3.89583 14.1411 3.41441 14.7356 3.41441C15.3302 3.41441 15.8125 3.89583 15.8136 4.49041C15.8139 4.77727 15.6999 5.05243 15.4969 5.25508C15.2939 5.45774 15.0185 5.5712 14.7316 5.57041Z" fill="white"/>
</svg>
