<svg width="20" height="20" viewBox="0 0 20 20" fill="none" xmlns="http://www.w3.org/2000/svg">
<path fill-rule="evenodd" clip-rule="evenodd" d="M10.0002 13.3334C9.81025 13.3334 9.62108 13.2692 9.46692 13.14L4.46692 8.97336C4.11358 8.67919 4.06525 8.15336 4.36025 7.80002C4.65442 7.44669 5.17942 7.39919 5.53358 7.69336L10.0094 11.4234L14.4778 7.82752C14.8361 7.53919 15.3611 7.59586 15.6494 7.95419C15.9377 8.31252 15.8811 8.83669 15.5228 9.12586L10.5228 13.1492C10.3703 13.2717 10.1852 13.3334 10.0002 13.3334Z" fill="#231F20"/>
<mask id="mask0_1_635" style="mask-type:luminance" maskUnits="userSpaceOnUse" x="4" y="7" width="12" height="7">
<path fill-rule="evenodd" clip-rule="evenodd" d="M10.0002 13.3334C9.81025 13.3334 9.62108 13.2692 9.46692 13.14L4.46692 8.97336C4.11358 8.67919 4.06525 8.15336 4.36025 7.80002C4.65442 7.44669 5.17942 7.39919 5.53358 7.69336L10.0094 11.4234L14.4778 7.82752C14.8361 7.53919 15.3611 7.59586 15.6494 7.95419C15.9377 8.31252 15.8811 8.83669 15.5228 9.12586L10.5228 13.1492C10.3703 13.2717 10.1852 13.3334 10.0002 13.3334Z" fill="white"/>
</mask>
<g mask="url(#mask0_1_635)">
</g>
</svg>
