<svg width="20" height="20" viewBox="0 0 20 20" fill="none" xmlns="http://www.w3.org/2000/svg">
<path fill-rule="evenodd" clip-rule="evenodd" d="M10.0002 13.3333C9.81025 13.3333 9.62108 13.2692 9.46692 13.14L4.46692 8.97334C4.11358 8.67917 4.06525 8.15334 4.36025 7.80001C4.65442 7.44667 5.17942 7.39917 5.53358 7.69334L10.0094 11.4233L14.4778 7.82751C14.8361 7.53917 15.3611 7.59584 15.6494 7.95417C15.9377 8.31251 15.8811 8.83667 15.5228 9.12584L10.5228 13.1492C10.3703 13.2717 10.1852 13.3333 10.0002 13.3333Z" fill="#231F20"/>
<mask id="mask0_1_635" style="mask-type:luminance" maskUnits="userSpaceOnUse" x="4" y="7" width="12" height="7">
<path fill-rule="evenodd" clip-rule="evenodd" d="M10.0002 13.3333C9.81025 13.3333 9.62108 13.2692 9.46692 13.14L4.46692 8.97334C4.11358 8.67917 4.06525 8.15334 4.36025 7.80001C4.65442 7.44667 5.17942 7.39917 5.53358 7.69334L10.0094 11.4233L14.4778 7.82751C14.8361 7.53917 15.3611 7.59584 15.6494 7.95417C15.9377 8.31251 15.8811 8.83667 15.5228 9.12584L10.5228 13.1492C10.3703 13.2717 10.1852 13.3333 10.0002 13.3333Z" fill="white"/>
</mask>
<g mask="url(#mask0_1_635)">
<rect width="20" height="20" fill="#0D1C2E"/>
</g>
</svg>
