<svg width="19" height="19" viewBox="0 0 19 19" fill="none" xmlns="http://www.w3.org/2000/svg">
<path d="M9.93176 18.3263C7.47176 18.3263 7.18176 18.3133 6.22176 18.2713C5.47313 18.2467 4.7342 18.0945 4.03676 17.8213C2.83007 17.3517 1.8759 16.3971 1.40676 15.1903C1.14407 14.4903 1.00238 13.7508 0.987763 13.0033C0.931763 12.0453 0.931763 11.7313 0.931763 9.29028C0.931763 6.82328 0.944763 6.53528 0.987763 5.58028C1.0027 4.8338 1.14438 4.09529 1.40676 3.39628C1.87539 2.18781 2.83111 1.23246 4.03976 0.764283C4.73841 0.500486 5.47711 0.358428 6.22376 0.344283C7.17876 0.290283 7.49276 0.290283 9.93176 0.290283C12.4118 0.290283 12.6968 0.303283 13.6418 0.344283C14.3904 0.35855 15.131 0.500593 15.8318 0.764283C17.0401 1.23299 17.9956 2.18816 18.4648 3.39628C18.7319 4.10548 18.8743 4.85554 18.8858 5.61328C18.9418 6.57128 18.9418 6.88428 18.9418 9.32428C18.9418 11.7643 18.9278 12.0843 18.8858 13.0313C18.8709 13.7795 18.7288 14.5197 18.4658 15.2203C17.9954 16.428 17.0398 17.3829 15.8318 17.8523C15.132 18.1145 14.3929 18.2561 13.6458 18.2713C12.6908 18.3263 12.3778 18.3263 9.93176 18.3263ZM9.89776 1.87328C7.45176 1.87328 7.19776 1.88528 6.24276 1.92828C5.67275 1.93583 5.10824 2.04102 4.57376 2.23928C3.78452 2.54129 3.15999 3.16328 2.85476 3.95128C2.65498 4.49158 2.54977 5.06226 2.54376 5.63828C2.49076 6.60728 2.49076 6.86128 2.49076 9.29028C2.49076 11.6903 2.49976 11.9813 2.54376 12.9443C2.55271 13.5145 2.65786 14.0791 2.85476 14.6143C3.16044 15.4018 3.78486 16.0233 4.57376 16.3253C5.10788 16.5249 5.67261 16.6301 6.24276 16.6363C7.21076 16.6923 7.46576 16.6923 9.89776 16.6923C12.3508 16.6923 12.6048 16.6803 13.5518 16.6363C14.1222 16.6293 14.6871 16.5241 15.2218 16.3253C16.0062 16.0207 16.6267 15.4006 16.9318 14.6163C17.1312 14.0755 17.2364 13.5046 17.2428 12.9283H17.2538C17.2968 11.9723 17.2968 11.7173 17.2968 9.27428C17.2968 6.83128 17.2858 6.57428 17.2428 5.61928C17.2338 5.04973 17.1286 4.48579 16.9318 3.95128C16.6274 3.16586 16.0068 2.54458 15.2218 2.23928C14.6872 2.04002 14.1222 1.9348 13.5518 1.92828C12.5848 1.87328 12.3318 1.87328 9.89776 1.87328ZM9.93176 13.9093C8.06175 13.9105 6.37518 12.785 5.65863 11.0577C4.94207 9.33046 5.33667 7.34161 6.65839 6.01874C7.98012 4.69588 9.96862 4.29955 11.6965 5.01462C13.4244 5.72968 14.5514 7.41527 14.5518 9.28528C14.549 11.8363 12.4828 13.9043 9.93176 13.9093ZM9.93176 6.28328C8.27491 6.28328 6.93176 7.62643 6.93176 9.28328C6.93176 10.9401 8.27491 12.2833 9.93176 12.2833C11.5886 12.2833 12.9318 10.9401 12.9318 9.28328C12.9279 7.62803 11.587 6.28713 9.93176 6.28328ZM14.7318 5.57029C14.1372 5.56808 13.6567 5.08487 13.6578 4.49029C13.6589 3.89571 14.1412 3.41429 14.7358 3.41429C15.3303 3.41429 15.8127 3.8957 15.8138 4.49028C15.814 4.77715 15.7001 5.05231 15.497 5.25496C15.294 5.45762 15.0186 5.57108 14.7318 5.57029Z" fill="white"/>
</svg>
