<svg width="22" height="18" viewBox="0 0 22 18" fill="none" xmlns="http://www.w3.org/2000/svg">
<path d="M19.3958 2.96948C20.2922 2.43357 20.9629 1.58972 21.2828 0.595483C20.4404 1.09529 19.5188 1.44736 18.5578 1.63648C17.2253 0.22701 15.1143 -0.115991 13.4042 0.799139C11.694 1.71427 10.8083 3.66097 11.2418 5.55148C7.79137 5.37826 4.57672 3.7484 2.39776 1.06748C1.2606 3.0289 1.84171 5.53627 3.72576 6.79748C3.04447 6.77558 2.37828 6.59112 1.78276 6.25948C1.78276 6.27748 1.78276 6.29548 1.78276 6.31348C1.78315 8.35664 3.22313 10.1166 5.22576 10.5215C4.59382 10.6934 3.93096 10.7187 3.28776 10.5955C3.85096 12.3428 5.46131 13.5398 7.29676 13.5755C5.77659 14.7686 3.89923 15.4156 1.96676 15.4125C1.62423 15.413 1.28197 15.3933 0.941757 15.3535C2.90415 16.6145 5.18813 17.2838 7.52076 17.2815C10.766 17.3038 13.8848 16.0244 16.1795 13.7295C18.4742 11.4346 19.7533 8.31573 19.7308 5.07048C19.7308 4.88448 19.7264 4.69948 19.7178 4.51548C20.5582 3.90808 21.2836 3.15563 21.8598 2.29348C21.0768 2.64055 20.2462 2.86841 19.3958 2.96948Z" fill="white"/>
</svg>
