<svg width="21" height="21" viewBox="0 0 21 21" fill="none" xmlns="http://www.w3.org/2000/svg">
<path d="M0.93103 10.2889C0.932194 15.2083 4.50943 19.3969 9.36803 20.1679V13.1789H6.83103V10.2889H9.37103V8.08891C9.25748 7.04645 9.61355 6.0075 10.3427 5.25384C11.0718 4.50018 12.0984 4.10992 13.144 4.18891C13.8946 4.20103 14.6432 4.26788 15.384 4.38891V6.84791H14.12C13.6849 6.79092 13.2474 6.93463 12.9308 7.23858C12.6142 7.54252 12.4528 7.9738 12.492 8.41091V10.2889H15.263L14.82 13.1799H12.492V20.1679C17.7465 19.3375 21.4311 14.5387 20.8765 9.24798C20.322 3.95728 15.7223 0.0268386 10.4099 0.304088C5.09739 0.581337 0.931875 4.96922 0.93103 10.2889Z" fill="white"/>
</svg>
