<svg width="19" height="19" viewBox="0 0 19 19" fill="none" xmlns="http://www.w3.org/2000/svg">
<path d="M10.9317 18.2903H6.93172V6.29028H10.9317V8.29028C11.7844 7.20554 13.0774 6.55886 14.4567 6.52728C16.9373 6.54105 18.9389 8.55966 18.9317 11.0403V18.2903H14.9317V11.5403C14.7718 10.4229 13.8135 9.59386 12.6847 9.59628C12.191 9.61189 11.725 9.82806 11.3942 10.1949C11.0634 10.5618 10.8964 11.0476 10.9317 11.5403V18.2903ZM4.93172 18.2903H0.931725V6.29028H4.93172V18.2903ZM2.93172 4.29028C1.82715 4.29028 0.931725 3.39485 0.931725 2.29028C0.931725 1.18571 1.82715 0.290283 2.93172 0.290283C4.03629 0.290283 4.93172 1.18571 4.93172 2.29028C4.93172 2.82072 4.72101 3.32942 4.34594 3.7045C3.97087 4.07957 3.46216 4.29028 2.93172 4.29028Z" fill="white"/>
</svg>
