<svg width="22" height="18" viewBox="0 0 22 18" fill="none" xmlns="http://www.w3.org/2000/svg">
<path d="M19.3959 2.9696C20.2923 2.43369 20.9631 1.58984 21.2829 0.595605C20.4405 1.09541 19.5189 1.44748 18.5579 1.6366C17.2255 0.227132 15.1144 -0.115869 13.4043 0.799261C11.6942 1.71439 10.8084 3.66109 11.2419 5.5516C7.7915 5.37838 4.57686 3.74852 2.39789 1.0676C1.26073 3.02903 1.84185 5.53639 3.72589 6.7976C3.0446 6.7757 2.37842 6.59124 1.78289 6.2596C1.78289 6.27761 1.78289 6.2956 1.78289 6.3136C1.78329 8.35676 3.22327 10.1167 5.22589 10.5216C4.59396 10.6935 3.9311 10.7188 3.28789 10.5956C3.85109 12.3429 5.46145 13.5399 7.29689 13.5756C5.77673 14.7687 3.89937 15.4158 1.96689 15.4126C1.62437 15.4131 1.2821 15.3934 0.941895 15.3536C2.90428 16.6146 5.18826 17.284 7.52089 17.2816C10.7661 17.3039 13.8849 16.0245 16.1796 13.7296C18.4743 11.4347 19.7535 8.31585 19.7309 5.0706C19.7309 4.8846 19.7266 4.6996 19.7179 4.5156C20.5583 3.90821 21.2837 3.15575 21.8599 2.29361C21.0769 2.64067 20.2464 2.86853 19.3959 2.9696Z" fill="white"/>
</svg>
