<svg width="179" height="26" viewBox="0 0 179 26" fill="none" xmlns="http://www.w3.org/2000/svg">
<path d="M19.77 3.238V25H14.469V16.041H6.223V25H0.922V3.238H6.223V11.763H14.469V3.238H19.77ZM24.0928 16.32C24.0928 14.5427 24.4235 12.9823 25.0848 11.639C25.7668 10.2957 26.6865 9.26233 27.8438 8.539C29.0011 7.81567 30.2928 7.454 31.7188 7.454C32.9381 7.454 34.0025 7.702 34.9118 8.198C35.8418 8.694 36.5548 9.345 37.0508 10.151V7.702H42.3518V25H37.0508V22.551C36.5341 23.357 35.8108 24.008 34.8808 24.504C33.9715 25 32.9071 25.248 31.6878 25.248C30.2825 25.248 29.0011 24.8863 27.8438 24.163C26.6865 23.419 25.7668 22.3753 25.0848 21.032C24.4235 19.668 24.0928 18.0973 24.0928 16.32ZM37.0508 16.351C37.0508 15.0283 36.6788 13.9847 35.9348 13.22C35.2115 12.4553 34.3228 12.073 33.2688 12.073C32.2148 12.073 31.3158 12.4553 30.5718 13.22C29.8485 13.964 29.4868 14.9973 29.4868 16.32C29.4868 17.6427 29.8485 18.6967 30.5718 19.482C31.3158 20.2467 32.2148 20.629 33.2688 20.629C34.3228 20.629 35.2115 20.2467 35.9348 19.482C36.6788 18.7173 37.0508 17.6737 37.0508 16.351ZM58.3078 25L53.0378 17.746V25H47.7368V2.06H53.0378V14.739L58.2768 7.702H64.8178L57.6258 16.382L64.8798 25H58.3078ZM71.1159 5.904C70.1859 5.904 69.4213 5.63533 68.8219 5.098C68.2433 4.54 67.9539 3.858 67.9539 3.052C67.9539 2.22533 68.2433 1.54333 68.8219 1.006C69.4213 0.447998 70.1859 0.168998 71.1159 0.168998C72.0253 0.168998 72.7693 0.447998 73.3479 1.006C73.9473 1.54333 74.2469 2.22533 74.2469 3.052C74.2469 3.858 73.9473 4.54 73.3479 5.098C72.7693 5.63533 72.0253 5.904 71.1159 5.904ZM73.7509 7.702V25H68.4499V7.702H73.7509ZM101.215 7.516C103.364 7.516 105.069 8.167 106.33 9.469C107.611 10.771 108.252 12.5793 108.252 14.894V25H102.982V15.607C102.982 14.491 102.682 13.6333 102.083 13.034C101.504 12.414 100.698 12.104 99.6645 12.104C98.6312 12.104 97.8148 12.414 97.2155 13.034C96.6368 13.6333 96.3475 14.491 96.3475 15.607V25H91.0775V15.607C91.0775 14.491 90.7778 13.6333 90.1785 13.034C89.5998 12.414 88.7938 12.104 87.7605 12.104C86.7272 12.104 85.9108 12.414 85.3115 13.034C84.7328 13.6333 84.4435 14.491 84.4435 15.607V25H79.1425V7.702H84.4435V9.872C84.9808 9.14867 85.6835 8.58033 86.5515 8.167C87.4195 7.733 88.4012 7.516 89.4965 7.516C90.7985 7.516 91.9558 7.795 92.9685 8.353C94.0018 8.911 94.8078 9.70667 95.3865 10.74C95.9858 9.78933 96.8022 9.01433 97.8355 8.415C98.8688 7.81567 99.9952 7.516 101.215 7.516Z" fill="#424242"/>
<path d="M132.357 3.238V25H127.056V16.041H118.81V25H113.509V3.238H118.81V11.763H127.056V3.238H132.357ZM154.815 7.702V25H149.514V22.644C148.976 23.4087 148.243 24.0287 147.313 24.504C146.403 24.9587 145.391 25.186 144.275 25.186C142.952 25.186 141.784 24.8967 140.772 24.318C139.759 23.7187 138.974 22.861 138.416 21.745C137.858 20.629 137.579 19.3167 137.579 17.808V7.702H142.849V17.095C142.849 18.2523 143.148 19.1513 143.748 19.792C144.347 20.4327 145.153 20.753 146.166 20.753C147.199 20.753 148.015 20.4327 148.615 19.792C149.214 19.1513 149.514 18.2523 149.514 17.095V7.702H154.815ZM165.473 10.151C165.969 9.345 166.682 8.694 167.612 8.198C168.542 7.702 169.607 7.454 170.805 7.454C172.231 7.454 173.523 7.81567 174.68 8.539C175.838 9.26233 176.747 10.2957 177.408 11.639C178.09 12.9823 178.431 14.5427 178.431 16.32C178.431 18.0973 178.09 19.668 177.408 21.032C176.747 22.3753 175.838 23.419 174.68 24.163C173.523 24.8863 172.231 25.248 170.805 25.248C169.586 25.248 168.522 25.0103 167.612 24.535C166.703 24.039 165.99 23.388 165.473 22.582V25H160.172V2.06H165.473V10.151ZM173.037 16.32C173.037 14.9973 172.665 13.964 171.921 13.22C171.198 12.4553 170.299 12.073 169.224 12.073C168.17 12.073 167.271 12.4553 166.527 13.22C165.804 13.9847 165.442 15.0283 165.442 16.351C165.442 17.6737 165.804 18.7173 166.527 19.482C167.271 20.2467 168.17 20.629 169.224 20.629C170.278 20.629 171.177 20.2467 171.921 19.482C172.665 18.6967 173.037 17.6427 173.037 16.32Z" fill="#FF7272"/>
</svg>
