<svg width="19" height="19" viewBox="0 0 19 19" fill="none" xmlns="http://www.w3.org/2000/svg">
<path d="M10.9316 18.2904H6.93164V6.29041H10.9316V8.29041C11.7843 7.20566 13.0773 6.55898 14.4566 6.52741C16.9372 6.54118 18.9388 8.55978 18.9317 11.0404V18.2904H14.9316V11.5404C14.7717 10.423 13.8134 9.59398 12.6846 9.59641C12.1909 9.61201 11.7249 9.82818 11.3941 10.195C11.0633 10.5619 10.8963 11.0477 10.9316 11.5404V18.2904ZM4.93164 18.2904H0.931641V6.29041H4.93164V18.2904ZM2.93164 4.29041C1.82707 4.29041 0.931641 3.39497 0.931641 2.29041C0.931641 1.18584 1.82707 0.290405 2.93164 0.290405C4.03621 0.290405 4.93164 1.18584 4.93164 2.29041C4.93164 2.82084 4.72093 3.32955 4.34585 3.70462C3.97078 4.07969 3.46207 4.29041 2.93164 4.29041Z" fill="white"/>
</svg>
